<svg xmlns="http://www.w3.org/2000/svg" xmlns:svg="http://www.w3.org/2000/svg" id="svg3864" width="848.782" height="358.862" version="1.1"><defs id="defs3866"><clipPath id="clipPath72"><path id="path74" d="m 0,253.0604 543.6594,0 0,312.9396 L 0,566 0,253.0604 z"/></clipPath></defs><metadata id="metadata3869"/><g id="layer1" transform="translate(-81.323458,-135.76864)"><g id="g3683" transform="matrix(1.25,0,0,-1.25,-161.18233,889.15739)"><g id="g3215" transform="translate(-307.94821,-183.77486)"><path id="path3167" d="m 510.14284,526.10501 c -2.392,0.78 -4.351,2.316 -5.886,4.565 -1.536,2.249 -2.304,4.706 -2.304,7.428 l 0,27.97 c 21.842,-4.275 43.686,-8.545 65.528,-12.82 l 0,45.836 c -16.381,1.071 -32.764,2.139 -49.146,3.208 -4.608,0.3 -8.709,2.406 -11.775,6.095 -3.088,3.717 -4.607,8.374 -4.607,13.618 l 0,74.585 c 0,5.048 1.521,9.908 4.607,14.523 3.16,4.724 7.166,7.96 11.774,9.463 24.574,8.01 49.147,16.023 73.72,24.039 2.215,0.722 4.07,-0.179 5.631,-2.051 1.482,-1.779 2.559,-5.904 2.559,-9.249 l 0,-37.103 c -22.029,-2.563 -43.767,-7.6 -65.528,-11.859 l 0,-41.563 c 16.383,1.07 32.765,2.136 49.147,3.203 4.435,0.289 8.281,-1.849 11.519,-6.591 3.24,-4.745 4.862,-10.699 4.862,-17.397 0,-32.98 -10e-4,-65.962 0,-98.942 0,-6.956 -1.613,-14.019 -4.862,-17.792 -3.127,-3.632 -7.084,-4.649 -11.519,-3.203 -24.574,8.011 -49.145,16.03 -73.72,24.037" style="fill:#231f20;fill-opacity:1;fill-rule:nonzero;stroke:none"/><path id="path3169" d="m 603.52024,499.39601 0,12.261 c 3.276,0.962 4.913,1.442 8.189,2.404 0.006,71.963 10e-4,143.926 10e-4,215.889 -3.276,0.962 -4.914,1.442 -8.19,2.404 l 0,12.261 c 27.304,-8.901 54.606,-17.805 81.909,-26.709 2.215,-0.723 4.065,-2.482 5.63,-4.774 1.554,-2.275 2.562,-4.698 2.562,-7.219 l 0,-177.136 c -10.921,-3.563 -21.842,-7.123 -32.764,-10.684 l 0,176.653 c 0,2.81 -1.016,5.426 -2.56,7.786 -1.571,2.401 -3.415,4.164 -5.631,4.742 -2.391,0.624 -4.343,-0.09 -5.887,-1.856 -1.438,-1.643 -2.304,-3.979 -2.304,-6.934 l 0,-185.733 c -13.652,-4.45 -27.303,-8.905 -40.955,-13.355" style="fill:#231f20;fill-opacity:1;fill-rule:nonzero;stroke:none"/><path id="path3171" d="m 601.78684,785.95461 18.646,-5.664 0,-30.836 0,0.865 -18.646,5.664 -18.646,-5.664 0,-0.865 0,30.836 18.646,5.664 z" style="fill:#231f20;fill-opacity:1;fill-rule:nonzero;stroke:none"/><g id="g3173" transform="translate(601.78684,785.95461)"><path id="path3175" d="m 0,0 18.646,-5.664 0,-30.836 0,0.865 -18.646,5.664 -18.646,-5.664 0,-0.865 0,30.836 L 0,0 z" style="fill:none;stroke:#231f20;stroke-width:1;stroke-linecap:butt;stroke-linejoin:miter;stroke-miterlimit:10;stroke-opacity:1;stroke-dasharray:none"/></g></g><g id="g68" transform="translate(402.6748,28.631397)" style="fill:#231f20;fill-opacity:1"><g id="g70" clip-path="url(#clipPath72)" style="fill:#231f20;fill-opacity:1"><g id="g76" transform="translate(4,419.5977)" style="fill:#231f20;fill-opacity:1"><text id="text78" transform="scale(1,-1)" style="fill:#231f20;fill-opacity:1"><tspan id="tspan80" x="0 64.452 151.104 237.756 324.408 357.78" y="0" style="font-size:120px;font-variant:normal;font-weight:700;writing-mode:lr-tb;fill:#231f20;fill-opacity:1;fill-rule:nonzero;stroke:none;font-family:Liberation Sans;-inkscape-font-specification:Liberation Sans">TARDIS</tspan></text></g><g id="g82" transform="translate(4,419.5977)" style="fill:#231f20;fill-opacity:1"><text id="text84" transform="matrix(1,0,0,-1,437.82,0)" style="fill:#231f20;fill-opacity:1"><tspan id="tspan86" x="0" y="0" style="font-size:120px;font-variant:normal;font-weight:700;writing-mode:lr-tb;fill:#231f20;fill-opacity:1;fill-rule:nonzero;stroke:none;font-family:Liberation Sans;-inkscape-font-specification:Liberation Sans">!</tspan></text></g><g id="g88" transform="translate(4,363.6694)" style="fill:#231f20;fill-opacity:1"><text id="text90" transform="scale(1,-1)" style="fill:#231f20;fill-opacity:1"><tspan id="tspan92" x="0 19.343 33.843 49.973 56.417 72.546 82.203 88.647 104.777 120.907 128.963 143.463 159.593 175.723 191.852 201.509 217.639 233.769 248.269 264.399 280.529 288.585 312.742 328.872 345.001 361.131 369.187 385.317 401.447 415.947" y="0" style="font-size:29px;font-variant:normal;font-weight:400;writing-mode:lr-tb;fill:#231f20;fill-opacity:1;fill-rule:nonzero;stroke:none;font-family:Liberation Sans;-inkscape-font-specification:Liberation Sans">Exploring supernovae made easy</tspan></text></g></g></g></g></g></svg>